<svg id="Warstwa_1" data-name="Warstwa 1" xmlns="http://www.w3.org/2000/svg" viewBox="0 0 692.16 692.16"><defs><style>.cls-1,.cls-3,.cls-4{fill:#7d7dff;}.cls-1,.cls-7{stroke:#fff;}.cls-1{stroke-miterlimit:10;stroke-width:12px;}.cls-13,.cls-2,.cls-6{fill:none;}.cls-12,.cls-13,.cls-2,.cls-3,.cls-5,.cls-6{stroke:#000;}.cls-12,.cls-13,.cls-2,.cls-3,.cls-5,.cls-6,.cls-7{stroke-linecap:round;stroke-linejoin:round;}.cls-12,.cls-2,.cls-3,.cls-5{stroke-width:2px;}.cls-5,.cls-7,.cls-8{fill:#fff;}.cls-7{stroke-width:0.75px;}.cls-9{font-size:23.12px;font-family:Halogen-Bold, Halogen;font-weight:700;}.cls-10{letter-spacing:-0.06em;}.cls-11{font-size:13px;font-family:Halogen-Medium, Halogen;font-weight:500;}.cls-13{stroke-width:3px;}</style></defs><path class="cls-1" d="M295.14,210.86c18-5.75,25.35-63.12,54.27-60.75S389,165.94,399.87,162s39.57-48.26,80.63-38.77,67.83,91.63,54.84,114.26-40.77,27.37-37.57,41.61,45.22,37.52,23.82,51.2-37.84,14.74-22,20.87,52.84-55.08,87.65-56.45,57.95,19.53,63.79,34.39-43.22,84.34-124.71,88.77S400.21,384.3,394.42,395.38s77.3,125,22,154.45C228.44,649.8.19,353.38,46.82,302.67,76,270.91,214.58,300.35,241.07,285s-42.65-13.28-74.84-30.34-43.89-71.62.6-85.33C217.36,153.73,277.12,216.62,295.14,210.86Z"/><path d="M76.66,325.22c-1.75,45.33,90.78,115.22,127.83,137.09,40.53,24.49,79.29,52.59,123.33,70.4,16.7,6.25,39.66,13.85,55.93,3.47,8.17-5.69,13.22-16.4,13.84-26.23.66-12.94-7-24.46-15.57-33.53-11.84-12.44-26.15-22.3-40.54-31.58s-29.54-17.76-44.63-26.1c-44-23.51-92.39-50.27-135.37-76.19-14.89-8.61-29.84-17.29-45.5-24.37-13.45-5.75-38.11-16.36-39.32,7Zm-2.38-.17c1.6-25.56,27.41-15.83,42.66-9,27.19,12.39,64.06,35.69,90.32,50.81,29.72,17.57,60.41,33.34,90.63,50,22.62,12.61,45.31,25.39,66.09,41,16.22,12.64,36.41,29.78,35.63,52.24a39.64,39.64,0,0,1-10.27,24c-6.17,6.62-15.42,9.26-24.24,9.25-45.19-.79-111.43-48.57-150.72-72.34-14.77-9-29.55-18-43.41-28.34C140.37,420,72.66,365.35,74.28,325.05Z"/><ellipse class="cls-2" cx="133.33" cy="351.41" rx="12.43" ry="7.25" transform="translate(-7.41 2.9) rotate(-1.21)"/><path class="cls-2" d="M120.9,351.68s-2.79,13.11,8.64,14.23,15.92-1.74,16.22-14.76"/><ellipse class="cls-2" cx="133.31" cy="350.68" rx="3.27" ry="1.76" transform="translate(-7.4 2.9) rotate(-1.21)"/><ellipse class="cls-3" cx="123.86" cy="408.8" rx="11.74" ry="6.85" transform="translate(-8.63 2.72) rotate(-1.21)"/><path class="cls-3" d="M134.91,408.57c1.3,12.23-3.83,15-14.62,13.92s-8.16-13.44-8.16-13.44,5.52,6.93,11.88,6.6S134.91,408.57,134.91,408.57Z"/><ellipse class="cls-3" cx="123.85" cy="408.11" rx="3.09" ry="1.66" transform="translate(-8.62 2.71) rotate(-1.21)"/><path class="cls-2" d="M120.63,402l5.4-37s-4.16,4.63-8.22,6.55"/><ellipse class="cls-2" cx="323.89" cy="450.05" rx="16.13" ry="9.41" transform="translate(-41.08 32.62) rotate(-5.42)"/><path class="cls-2" d="M307.83,451.58s-2.36,17.23,12.54,17.59,20.42-3.77,19.57-20.64"/><ellipse class="cls-2" cx="323.8" cy="449.11" rx="4.24" ry="2.29" transform="translate(-40.99 32.61) rotate(-5.42)"/><ellipse class="cls-3" cx="317.1" cy="525.19" rx="15.23" ry="8.88" transform="translate(-48.21 32.31) rotate(-5.42)"/><path class="cls-3" d="M331.38,523.84c2.84,15.7-3.54,19.73-17.6,19.4S302,526.63,302,526.63s7.8,8.44,16,7.41S331.38,523.84,331.38,523.84Z"/><ellipse class="cls-3" cx="317.02" cy="524.3" rx="4.01" ry="2.16" transform="translate(-48.12 32.3) rotate(-5.42)"/><path d="M148.12,334.26c-.09-.65.54-1.15.92-1.6,10.67-11.72,28.14-17,43.31-11.7,8.84,2.81,13.85,10,13,19.27-.24,4-1.34,7.74-2,11.59a5.11,5.11,0,0,0,0,2.34.27.27,0,0,0,.18.16c2.11-.4,4-2.66,5.59-4.09,7.16-7.36,13.34-15.77,19.18-24.21a1,1,0,0,1,1.73.18c2.36,5.16,5.17,10.55,9.61,14.2a3.36,3.36,0,0,1,1.61,1.85,5.05,5.05,0,0,1-.59,3.41A31.31,31.31,0,0,1,236.2,352c-6.75,7.51-14.36,14.05-22.11,20.47a1,1,0,0,1-1.13.09c-21.68-12.63-43.36-25.48-64.84-38.25Zm2-.32c21.43,12.26,42.65,24.44,63.87,36.84l-1.13.09c7.62-6.32,15.24-12.88,21.85-20.24,1.31-1.58,5.63-6.36,4.51-8.12-.49-.36-1-.75-1.49-1.16-4.32-3.94-7.08-9.11-9.46-14.37l1.73.2c-6.34,8.23-12.56,16.49-19.72,24.11-1.84,1.85-7.57,7.81-8.63,2.44a29.18,29.18,0,0,1,.63-6c.77-4.85,1.26-10.09-.61-14.64-3.86-9-16.32-10.78-25.06-10.4-9.76.67-19.17,5.21-26.41,11.77l-.16.16-.09.08,0,0,.06-.08a.86.86,0,0,0,.13-.69Z"/><path class="cls-2" d="M231.46,329.59s26.67-43.29,41.08-40.38,14.7,29.12,22.6,34.32"/><path d="M238.28,339.58c4.94-7.16,10-14.19,15.47-21,3.89-4.59,7.64-9.65,12.74-13.06a4,4,0,0,1,3.33-.62c2,1.14,2.8,3.21,4,5,6.72,11,12.29,23,21.76,31.74,2,1.64,4,3.07,6.43,3.43a9.82,9.82,0,0,0,4.05-.45,1,1,0,0,1,1.4.77,1,1,0,0,1-.43,1,6.64,6.64,0,0,1-2.54,1.18c-3.91.84-7.82-1.6-10.57-4-9.74-9-15.43-21.34-22.14-32.42a21.51,21.51,0,0,0-2.84-4c-1.83.33-3.43,2.09-4.85,3.34a110.57,110.57,0,0,0-8.57,9.58c-5.45,6.69-10.62,13.65-15.6,20.71a1,1,0,0,1-1.65-1.14Z"/><path d="M304.3,243.7c-25,43.85-13.7,104.8,34.91,126.25a85.26,85.26,0,0,0,20,6.19l-1.79,1.05a1.62,1.62,0,0,1,2.94-.23l-1.15-.82c29,5.16,59.47-5.39,81.19-25a1,1,0,0,1,1.35,1.47c-21.91,20.59-53.11,31.61-83.08,26.66l-1.14-.82a1.62,1.62,0,0,0,.77.7,1.68,1.68,0,0,0,1.56-.15,1.6,1.6,0,0,0,.6-.79l-1.79,1.05c-28.87-4.42-54-25.76-63.93-53.1-10.15-27.21-6.37-58.46,7.86-83.48a1,1,0,0,1,1.74,1Z"/><path class="cls-2" d="M448.45,344.42q2.21-2.44,4.3-5.06a108.44,108.44,0,0,0,13.62-22,104.35,104.35,0,0,0,6.12-16.68c.37-1.36.71-2.72,1-4.09s.62-2.83.88-4.24a96,96,0,0,0-1.23-41.22,85.65,85.65,0,0,0-8-20.16,81.4,81.4,0,0,0-12.31-16.83,80.12,80.12,0,0,0-8.24-7.54,81.52,81.52,0,0,0-36.49-16.5c-1.79-.33-3.59-.59-5.4-.8a90.12,90.12,0,0,0-21.46.09,98.46,98.46,0,0,0-30.93,9.2,102.87,102.87,0,0,0-9.29,5.11,107.78,107.78,0,0,0-27.64,24.61q-2.85,3.57-5.35,7.31"/><path d="M404.14,271.23s30.59,9.89,50.54,17.79c20.18,8,47.33,19.33,47.33,19.33a235.31,235.31,0,0,1-43.09,8.37c-11.09,1-53.66-24.6-54.37-35.3C403.92,272,404.14,271.23,404.14,271.23Z"/><path d="M403.68,270.34a2.88,2.88,0,0,1,1.56.14c.45.1,1.91.49,2.39.61a440.61,440.61,0,0,1,58.91,20.2c12.07,5.14,24.09,10.35,35.85,16.14a1,1,0,0,1,.57,1.36,1,1,0,0,1-.66.52A243.25,243.25,0,0,1,472.68,316c-4.7.73-9.45,1.41-14.2,1.74-13.23-.44-45-20.36-52.78-31.29a10.22,10.22,0,0,1-2.2-5.71l-.12-1.89c-.05-1.21-.25-4.52-.26-5.7,0-.41,0-1.32,0-1.74v-.3c.12,0-.33.08.53-.76Zm.92,1.77c.85-.82.4-.72.52-.7s0,.59,0,.76c0,2.48.25,5.95.4,8.43.27,5.57,8.4,11.47,12.53,14.87A149.09,149.09,0,0,0,443.66,311c4.67,2.07,9.66,4.5,14.76,4.7a226.16,226.16,0,0,0,43.29-8.33s-.09,1.88-.09,1.88c-16.33-5.39-33-12-49-18.44-13.76-5.39-28.89-10.86-42.72-16.25-1.53-.59-4.19-1.65-5.71-2.26,0,0,0,0,0,0a.4.4,0,0,0,.36-.21Z"/><path d="M391.73,260.58S375.54,236,364.11,221.72s-24-40.4-24-40.4,0,31.74.47,45c.34,9.4,30.68,38.91,39.4,35.26S391.73,260.58,391.73,260.58Z"/><path d="M391.07,259.83a.74.74,0,0,0-.45.56.73.73,0,0,0,0,.34c0,.1.08.16,0,.1l-3.2-4.52c-8-11.15-16.05-22.51-24.68-33.14a158.7,158.7,0,0,1-13.41-19.87c-3.84-7-8-13.78-10.16-21.55l1.9-.43c.09,15.17-.08,30.41.54,45.55,2.49,9.3,16.74,22.45,24.53,28.24,3.69,2.52,8.15,5.9,12.68,5.78,4.16-1.32,9.1-3.57,13.33-1.19a1.21,1.21,0,1,1-.38-.13,1,1,0,0,0-.76.26Zm1.32,1.5a1.06,1.06,0,0,1-.81.23,1.26,1.26,0,0,1-.5-.21h0l-.05,0c-2.88-1.35-6.27-.27-9.16.67a9.41,9.41,0,0,1-3.73,1c-5.13-.5-9.08-3.44-13.1-6.21-8.09-6-23-19.73-25.33-29.54-.67-15.29-.45-30.57-.56-45.86a1,1,0,0,1,1-1,1.11,1.11,0,0,1,.92.55,76.67,76.67,0,0,1,6.29,10c3.8,6.85,7.7,13.66,11.84,20.3,6.42,9.94,14.06,19,20.47,28.93,3.21,4.74,6.67,10,9.75,14.88.47.75,1.92,3,2.38,3.76l.4.63.19.32a1.36,1.36,0,0,1,.15.25,1.52,1.52,0,0,1-.12,1.36Z"/><path class="cls-2" d="M391.73,260.58a26.46,26.46,0,0,1,7.75,4.08,21.24,21.24,0,0,1,4.66,6.57"/><path class="cls-3" d="M424.25,175s-19-6.19-22.35,7.33,34.62,50.95,40.49,59.64,25.75,1.7,25.75,1.7S468.75,210.89,424.25,175Z"/><path class="cls-4" d="M401.4,181.84s-24.77-6.06-27.53-4.47,21.25,28.36,28.79,36.74c7.08,7.88,33.64,21.13,33.64,21.13S418.41,201,401.4,181.84Z"/><path d="M400.88,182.7c.34.17.1.06.06.08-1.9-.34-4.92-.82-6.86-1.16-4.1-.66-10-1.71-14.08-2.15a23.67,23.67,0,0,0-5.16-.2h-.07l.08,0s.06,0,.09-.06a1.71,1.71,0,0,0,.84-1.45c0-.07,0,.13.13.31,2,3.75,4.91,7,7.55,10.39,5.2,6.42,13.1,15.45,18.6,21.78,1.12,1.29,2.3,2.64,3.49,3.83a65.38,65.38,0,0,0,6.83,5.35c7.78,5.36,16.07,10.22,24.37,14.93l-1.34,1.36c-2.48-4.68-5.09-9.32-7.76-13.91-8-13.63-16.52-27-26.77-39.09Zm1-1.71c7.2,8,13.32,17,19.14,26.1s11.1,18.25,16.13,27.69a1,1,0,0,1-1.34,1.35c-11.51-5.38-23.18-10.93-33.1-19-4.75-4.71-9.08-9.77-13.52-14.76-4.76-5.46-9.48-11-13.76-16.85-1.51-2.41-6.51-8.16-2.27-10.16a4.6,4.6,0,0,1,1.52-.32c4.46,0,8.69,1.09,13,2,4.73,1.13,9.6,2.41,14.23,4Z"/><path class="cls-4" d="M424.25,175s-7.23-20.48,21.52-21,46.24,16.6,47.54,28.62c1.11,10.36,6.92,24.52,15.37,36.66,6.27,9-32.66,39.52-38.53,30C451.25,218.89,453.28,199.68,424.25,175Z"/><path d="M423.43,175.6a2.67,2.67,0,0,1-.22-.54,18.62,18.62,0,0,1-.44-8.87c3.63-15.93,27.06-14.18,39.41-11.52,11.5,2.76,22.78,9,29.18,19.27a21.92,21.92,0,0,1,3.18,8.63,53.64,53.64,0,0,0,1.7,8.34,90.67,90.67,0,0,0,6.42,15.94,107.94,107.94,0,0,0,6.93,11.55c2.06,2.73.67,6.49-.81,9a47.2,47.2,0,0,1-8.64,10.3c-5.18,5-26.26,21.76-31.61,11.54-3.06-5-5.84-10.18-8.4-15.45-5.06-10.47-9-21.49-14.68-31.57A95.07,95.07,0,0,0,432.73,185c-2.89-3.07-6.37-6.38-9.3-9.39Zm1.65-1.14a85.86,85.86,0,0,1,22.8,26.42c5.74,10.23,9.65,21.27,14.7,31.77,2.52,5.2,5.24,10.3,8.24,15.23,2,4.69,10.69-.19,13.8-1.85a71.86,71.86,0,0,0,19.56-16.43c1.78-2.42,5.24-6.83,3.3-9.74a99.45,99.45,0,0,1-13.64-28.27,54.68,54.68,0,0,1-1.76-8.75,19.39,19.39,0,0,0-2.83-7.63c-5.95-9.64-16.77-15.62-27.61-18.28-14.61-3.46-41.58-3.77-36.56,17.53Z"/><path d="M293.94,416.35a1.34,1.34,0,0,1,1-1l1.16-.43c16.71-6,49.49-13.56,60.73,4.76,7.08,11.4,7.85,25.6,6.92,38.6a1,1,0,0,1-1.06.93c-20.18-11.94-48.57-30.27-68.79-42.87Zm2,.2c19.91,11.95,47.91,28.77,67.39,40.82l-1.52.77A92,92,0,0,0,359,432.9c-2.1-7.74-6.11-15.87-13.91-18.87-14.23-5.48-33.91-1.15-48.25,2.89l-.77.24-.38.11-.19.06-.08,0a.91.91,0,0,0,.4-.31.93.93,0,0,0,.15-.5Z"/><path class="cls-2" d="M354.42,419.7s6.7-15.33,8.7-23.05-4.22-18.94-4.22-18.94"/><path class="cls-2" d="M350.66,376s4.08,9.69,3.52,15.17-7.33,21.75-7.33,21.75"/><path d="M341.11,313.58c10.77,4.7,21.88,10,33.54,11.89a82.62,82.62,0,0,0,21.25-.61,1,1,0,0,1,1.1.6c1.95,4.4,6.05,8.14,11,8.65a1,1,0,0,1,.46,1.82c-8.53,5.15-19,5.16-28.61,4.27-13.07-1.09-25-8.18-33.84-17.63a61,61,0,0,1-6.12-7.52,1,1,0,0,1,1.62-1.17,65.14,65.14,0,0,0,6.23,7c8.75,8.72,20,15.31,32.44,16.4,9,.91,18.83,1.12,27.13-3l.47,1.81a14.61,14.61,0,0,1-4.06-1.09,17.09,17.09,0,0,1-8.55-8.79l1.1.61a84.82,84.82,0,0,1-21.82.63c-7.27-1-14.11-3.75-20.88-6.36-4.48-1.79-8.89-3.69-13.28-5.71a1,1,0,0,1,.85-1.81Z"/><path class="cls-5" d="M225.07,332.17s12,14.2,15.21,15.13"/><path class="cls-2" d="M351,402.1s3.76,5,8.31,5.82"/><path class="cls-2" d="M349.67,406.59s4.54,5,8,5.77"/><line class="cls-2" x1="301.87" y1="414.27" x2="362.15" y2="451.82"/><line class="cls-2" x1="155.78" y1="329.46" x2="201.96" y2="365.04"/><line class="cls-2" x1="249.32" y1="304.84" x2="257.76" y2="315.23"/><line class="cls-2" x1="255.2" y1="318.22" x2="246.32" y2="308.41"/><line class="cls-2" x1="248.11" y1="310.39" x2="251.17" y2="307.13"/><line class="cls-2" x1="250.37" y1="312.89" x2="253.28" y2="309.72"/><line class="cls-2" x1="252.54" y1="315.29" x2="255.26" y2="312.16"/><path class="cls-6" d="M354.18,391.17a7.62,7.62,0,0,1,5.59-1.29c3.51.43,3.78,4.12,3.78,4.12"/><path class="cls-6" d="M353.69,393.93s3.6-1.33,5.37-.8,3.88,4.1,3.88,4.1"/><line class="cls-6" x1="356.59" y1="390.06" x2="356.55" y2="393.16"/><line class="cls-6" x1="359.85" y1="389.99" x2="358.92" y2="393.05"/><line class="cls-6" x1="362.28" y1="391.62" x2="361.31" y2="394.85"/><path class="cls-2" d="M433.15,346.89c-.2,1.75,7.88,5,7.88,5,8,3.47,14.74,9.3,22.05,13.9,8.17,5.15,16.53,7,25.73,9.45,10.64,2.87,21.11,6.26,31.44,10.06,1.4.51,4,2,5.57,1.66"/><path d="M448.56,344.1c1.79.1,3.29,1.2,4.86,1.95,4.53,2.5,8.47,6.08,12.51,9.17,17.06,11.66,37.92,15.5,57.31,21.79a1,1,0,0,1-.63,1.9c-13-4.31-26.59-7.32-39.19-12.85-6.34-2.65-12.73-5.52-18.32-9.73-5.06-4-9.68-8.43-15.67-10.92-.53-.18-1.86-1-.87-1.31Z"/><path class="cls-2" d="M115.25,389.6S120,397,118.6,402.75"/><path class="cls-2" d="M306.35,499s8.22,12.56,5.93,17.73l3.46-48.36s-4.12,9-8.05,13.48"/><path d="M219.61,339.6a.3.3,0,0,0-.24.18h0c.1-.9.21-2.36.29-3.27.2-4.4,1.67-20.05-5.19-19.3-3.63,1.27-2,8.09-1.1,10.94A35.7,35.7,0,0,0,219,338.37a5.21,5.21,0,0,1,.66,1.23Zm.21.7c-5.52-4.39-11.44-15.12-8.88-22.25,2-4.83,8.09-3.06,9.41,1.27,1.93,5.66,1.18,11.57.38,17.32-.14.76-.38,2.2-.56,2.95,0,.24-.09.62-.35.71Z"/><path d="M222.59,343.24c.1-.11,0-.42-.07-.47l0,0c.73.65,2,1.65,2.71,2.29,4.29,3.29,12.94,10.55,18.44,9.08,1.85-.72,2.89-2.79,1.62-4.52-4.31-5.37-13-6.34-19.5-6.28a9.68,9.68,0,0,1-3.22-.12Zm-1-.31c7-2.37,20.73-.83,25.33,5.65a4.85,4.85,0,0,1-2.59,7.41c-4,1.2-7.93-1.12-11.14-3a66.71,66.71,0,0,1-11.15-9.16c-.23-.23-.55-.51-.45-.86Z"/><path d="M349.29,413.23a.1.1,0,0,0-.12,0s0,0,0,0l0-.13c.26-2.69.5-5.54.58-8.23.08-5.26,1-21.18-7-20.2-2.53.63-2.93,3.68-3,6,.08,8.4,4.73,16,9.58,22.58Zm.1.35a38.14,38.14,0,0,1-9.78-14.32c-1.51-4.1-2.64-8.84-1-13.17a5.22,5.22,0,0,1,6.26-3.3c9.45,2.32,6.31,22.49,4.91,29.6l-.12.52-.05.26c0,.13-.06.34-.19.41Z"/><path d="M351.37,415.89a.13.13,0,0,0,0-.14c.06,0,.31.27.39.34,2.36,2,4.89,4.07,7.36,5.89,5.09,3.69,20.28,15.17,24.64,6.49,1.77-5.78-8.37-9.84-12.79-11.05-6.35-1.85-13.07-1.83-19.63-1.53Zm-.38-.13c9.87-2.14,21.21-1.42,30,4,4.44,2.8,7.49,8.31,2.45,12.28-8.58,6.36-25.53-9.28-31.5-15.19l-.44-.45-.22-.23c-.11-.11-.29-.28-.27-.44Z"/><path d="M221.28,346l1.5,14.75a1.27,1.27,0,0,1-2.53.25c0-.24.28-14.75.27-15a.38.38,0,0,1,.76,0Z"/><path d="M218.45,343.25l-11.66,1a1.22,1.22,0,0,1-.21-2.44h.16l11.7.57a.43.43,0,0,1,0,.85Z"/><path d="M357.5,422.06l14.95,17a1,1,0,0,1-.09,1.41,1,1,0,0,1-1.45-.14l-14-17.79a.37.37,0,0,1,.56-.47Z"/><path d="M346,410.78l-25.9-10.39a1,1,0,0,1-.55-1.3,1,1,0,0,1,1.3-.56l25.37,11.72a.29.29,0,0,1-.22.53Z"/><path class="cls-2" d="M136.39,391.84s-6.42,5.88-7.36,10l5.67-35.74s.2,7.25,2.32,9"/><path class="cls-2" d="M328.46,500.82s-5.49,11.39-5.34,14.88l3.94-46.77s3.11,13.18,4.22,16.39"/><path d="M392.07,271.62c-2.5,6.33-6.65,12.88-13.37,15.19a15.44,15.44,0,0,1-2.63.6c-6.77.55-3.45,5.78.38,7.95a2.89,2.89,0,0,0,1.81.42,1,1,0,0,1,.38,1.87c-4.15.74-10.46-5.83-8-9.86,1.6-2.36,4.43-2.2,6.85-2.75.34-.13,1.27-.44,1.62-.57,5.43-2.56,8.89-8.1,11-13.51a1,1,0,1,1,1.89.66Z"/><path class="cls-2" d="M421.48,262.18s-2.63-1.11,16.13,2.54,33.69,18,33.69,18-6.55-12.79-11.94-15.05S421.48,262.18,421.48,262.18Z"/><path class="cls-2" d="M360.19,199.06s2.37,1.63,11.75,12.77,21.22,28.75,21.22,28.75-16.49-30.5-19.24-33.69S360.19,199.06,360.19,199.06Z"/><path class="cls-2" d="M577.93,376.32s2.63,6.26-4.7,5.62c-7.16-.62-22.42.29-23.22-3.32s4.43-3.89,12.47-5.08S574.44,369.69,577.93,376.32Z"/><path class="cls-2" d="M566.82,389.12c.21-1.49-12.64-.07-14-1.29s-2-3.11-1.22-4.16c.33-.46,4.62-1.78,9.44-2.18a26.3,26.3,0,0,1,6.59.2,11.41,11.41,0,0,1,4.65,1.78,6.07,6.07,0,0,1,2.76,4.46c1.44,15.16-47.1,6.86-49.27-.95a4.28,4.28,0,0,0-.14-.43"/><path class="cls-2" d="M523.49,379.71v0a10,10,0,0,1,2.26-6.42c3-4.08,10.89-8.55,18-12h0c5.84-2.8,11.19-4.92,13-5.53,4-1.37,22.6-26.8,27.48-22.2S566.46,359.93,569.72,361s28.46-16.91,32.76-11S573,372.07,573,372.07"/><path class="cls-2" d="M543.79,361.28s27.79-1.49,30.11,2,.77,4.8-.51,5.79c-2,1.53-21.32,2-25.7-.41"/><path class="cls-5" d="M503.38,305.86l-15.08-.77a8.22,8.22,0,0,0-8.16,5.48l-7,19.84.6-22a6.88,6.88,0,0,0-5.16-6.84l-16.06-4.11,19-2.9a7,7,0,0,0,5.58-4.75l6.23-19.32.45,21.21a6,6,0,0,0,3.09,5.1Z"/><path class="cls-7" d="M355.62,209.84l-4.59-.23a2.5,2.5,0,0,0-2.49,1.67l-2.12,6,.18-6.71a2.1,2.1,0,0,0-1.57-2.08l-4.9-1.25,5.78-.89a2.13,2.13,0,0,0,1.7-1.44l1.9-5.89.13,6.46a1.85,1.85,0,0,0,.95,1.56Z"/><path class="cls-2" d="M272.74,300.44s-5.4,2.11-2.81,5.71"/><path class="cls-5" d="M266.3,292.47s3.89,2.76,7.13,2.79"/><path d="M308.14,236.23c-5.82.56-11.6,1.33-17.52,1.55-11.78.31-23.5-1.73-34.83-4.78a146.35,146.35,0,0,1-16.71-5.61,37.23,37.23,0,0,1-8.21-4c-2.59-1.72-5.09-4-6-7.12-1.6-5.85-2.51-11.73-4.13-17.53-1.06-3.39-1.82-7.21-4.31-9.68a1.28,1.28,0,0,0-1.32-.26c-.72.82-.87,2.28-1.07,3.41a61.86,61.86,0,0,0,0,13.26,17.41,17.41,0,0,0,1,5.17,1,1,0,0,1-.53,1.83,67.65,67.65,0,0,1-7.16-1.19c-3.67-.49-7.58-1.61-11.06-.38-2.56,1.46-6,3.83-1.61,6,3.93,1.89,8.41,2.5,12.73,3.15a28.17,28.17,0,0,0,7.49.33c.27,0,.54-.24.38-.1a.39.39,0,0,0-.05.27c-1.57-1.91-4.17-2.93-6.36-4.09-2.64-1.16-5.33-2.58-8.22-2.88a1,1,0,0,1,.19-2,15.18,15.18,0,0,1,4.68,1.26c2.14.89,15.52,6.16,10.54,9.16-2.89.93-6,.19-8.9-.09a69.34,69.34,0,0,1-8.95-1.75c-5.65-1.36-11.21-5.19-4.3-9.92a7.82,7.82,0,0,1,4.62-1.63,43.6,43.6,0,0,1,9.14.94c1.56.27,5.19,1.09,6.69,1.2,0,0,0,0-.14,0a.8.8,0,0,0-.28,1.22,2.63,2.63,0,0,1-.42-.51,17.86,17.86,0,0,1-1.24-5.85,63.76,63.76,0,0,1,.1-13.67,12.51,12.51,0,0,1,.94-3.51,2.52,2.52,0,0,1,1.19-1.2,3.07,3.07,0,0,1,1.56-.14c3.8,1.13,5.15,7.93,6.2,11.2,1.59,5.76,2.52,11.78,4.06,17.51.81,2.75,3,4.74,5.37,6.31a35.49,35.49,0,0,0,8,3.86,143,143,0,0,0,16.5,5.61c11.2,3.06,22.8,5.12,34.43,4.86,5.78-.19,11.61-.94,17.43-1.48a.59.59,0,0,1,.66.54.6.6,0,0,1-.54.66Z"/><path class="cls-2" d="M200.82,212.6s0,0,0,0c.65,0,12,1,15.32,2.58"/><path class="cls-2" d="M214.26,222s6.06,3.23,1.51,5.07c-3.23,1.32-23.75.31-24.83-2.08s1-8.19,3.13-7.41"/><path class="cls-2" d="M212.94,227.58s3.1.7,2.07,3.22c-.81,2-21.78,3.12-24.06,1.39s-1.49-7.27.71-6.51"/><path class="cls-2" d="M308.83,242.31c-1.38.35-5.4.9-5.4.9-6.42.85-13.94,1.72-22.19,2.48-17.29,1.57-36.66-3.18-47.77-6.56-1-.3-2-.59-3-.85-7-1.84-14.93-2.76-21.8-1.13-2.88.68-5.32.62-6.12,1-6.22,3.41-17,9.72-20.18,6.05s7.2-10.79,12.84-11.28l.52,0"/><path class="cls-2" d="M232.32,232s3.16,7.13-2.32,6.25"/><path class="cls-8" d="M396.44,316s-2.61,6.17-.37,9.86"/><path d="M397.69,316.52c-1.1,2.62-2.08,6.19-.76,8.81a1,1,0,0,1-1.71,1c-1.57-2.62-1.34-5.51-.78-8.27.38-1.25.52-4,2.5-3.44a1.36,1.36,0,0,1,.75,1.86Z"/><path class="cls-2" d="M188.41,196.39s-9.33-.6-14.19,3.89-2.61,15-2.61,15"/><path class="cls-2" d="M185.44,187.22s-11.25.54-17.72,6-5.07,16.49-5.07,16.49"/><path class="cls-2" d="M594.72,321.88c11.67.58,24.31,15.3,23.22,24.2"/><path class="cls-2" d="M597.61,307.65c17.39.21,35.57,18.74,33.54,30.34"/><path class="cls-6" d="M223.37,224a4.09,4.09,0,0,1,1.66,3.32,5.33,5.33,0,0,1-1.08,3.56"/><path class="cls-6" d="M540.17,373.24s-3.07,4-2.23,7.36,3.41,3.51,3.41,3.51"/><rect class="cls-3" x="114.17" y="373.28" width="24.81" height="18.18" rx="4.36" transform="translate(68.71 -16.23) rotate(10.06)"/><rect class="cls-3" x="304.4" y="481.23" width="27.05" height="19.82" rx="5.85" transform="translate(58.75 -33.38) rotate(6.62)"/><text class="cls-9" transform="translate(157.99 375.91) rotate(31.06)"><tspan class="cls-10">W</tspan><tspan x="26.91" y="0">oohoo!</tspan></text><text class="cls-11" transform="translate(150.55 404.99) rotate(30.43)">Hi, I am a cool toast </text><line class="cls-12" x1="367.35" y1="501.19" x2="372.16" y2="517.39"/><line class="cls-12" x1="361.66" y1="511.69" x2="377.86" y2="506.88"/><polyline class="cls-13" points="98.29 334.1 98.4 344.4 120.6 337.39"/><path d="M468.33,187.67a2.53,2.53,0,1,0,.76-3.49A2.53,2.53,0,0,0,468.33,187.67Z"/><path d="M463.12,191c-.54,2.71-.45,5,.41,6.3a2.65,2.65,0,0,0,1.06,1c1.44.75,3.43.08,5.61-1.9.39-.35.77-.72,1.15-1.12l1.23,1c2.38,1.73,4.43,2.22,5.78,1.35s1.78-2.95,1.16-5.81a11.47,11.47,0,0,0-.41-1.55,14.63,14.63,0,0,0,1.5-.57c2.74-1.21,4.2-2.76,4.12-4.39a2.75,2.75,0,0,0-.47-1.38c-.83-1.3-2.86-2.35-5.56-3,.57-2.69.47-4.95-.38-6.28a2.78,2.78,0,0,0-1.06-1c-1.45-.75-3.44-.08-5.62,1.9-.39.35-.77.72-1.15,1.13-.43-.37-.83-.7-1.23-1-2.37-1.73-4.43-2.22-5.78-1.35s-1.78,2.95-1.16,5.81a11.47,11.47,0,0,0,.41,1.55c-.53.18-1,.36-1.5.57-2.69,1.19-4.15,2.74-4.06,4.33a2.64,2.64,0,0,0,.46,1.37C458.44,189.35,460.46,190.37,463.12,191Zm2.26-3.26c.25.43.53.86.8,1.3s.56.86.85,1.26c-.81-.06-1.59-.17-2.35-.29C464.88,189.27,465.1,188.52,465.38,187.75Zm.54-4.34c-.25.48-.48.92-.68,1.4-.37-.76-.68-1.5-.95-2.22a23.16,23.16,0,0,1,2.35-.51A12.94,12.94,0,0,0,465.92,183.41Zm4.65-4.86c.54.55,1.08,1.14,1.63,1.79l-1.56,0c-.53,0-1,0-1.54.12A19.65,19.65,0,0,1,470.57,178.55Zm-2.32,3.27c.8-.1,1.63-.18,2.48-.21s1.65,0,2.5,0c.48.66.95,1.33,1.4,2s.89,1.43,1.27,2.12c-.33.79-.69,1.54-1.06,2.26s-.8,1.48-1.22,2.17c-.81.1-1.63.18-2.48.21s-1.66,0-2.5,0c-.49-.66-.95-1.33-1.41-2s-.88-1.43-1.26-2.12c.33-.79.69-1.54,1.06-2.26S467.82,182.51,468.25,181.82Zm7,8.13.74-1.35c.25-.48.48-.92.68-1.41.37.77.68,1.51.95,2.23C476.82,189.63,476,189.81,475.22,190Zm-2.47,1.58c-.46.69-.95,1.33-1.44,1.93-.54-.55-1.08-1.14-1.63-1.79l1.56,0C471.71,191.62,472.23,191.58,472.75,191.53Zm-7.58,5.62a1.43,1.43,0,0,1-.59-.56c-.72-1.11-.7-3.09-.21-5.34a28.37,28.37,0,0,0,3.65.39,25.52,25.52,0,0,0,2.44,2.76c-.34.37-.7.71-1.07,1C467.66,197,466.1,197.65,465.17,197.15ZM478,190.6c.92,3,.78,5.28-.25,5.94s-2.45.1-4.35-1.3c-.37-.28-.77-.6-1.15-.94a27.91,27.91,0,0,0,2.16-3A25,25,0,0,0,478,190.6Zm5.27-6a1.54,1.54,0,0,1,.26.76c.05,1-1.14,2.19-3.31,3.13-.43.18-.9.36-1.39.54a33.33,33.33,0,0,0-1.49-3.36,25.7,25.7,0,0,0,1.15-3.48C480.68,182.73,482.51,183.52,483.23,184.64Zm-6.75-.41c-.24-.42-.52-.86-.8-1.29s-.56-.87-.84-1.26c.81.06,1.59.17,2.35.29C477,182.71,476.74,183.48,476.48,184.23Zm.22-9.4a1.48,1.48,0,0,1,.58.56c.72,1.12.7,3.1.21,5.35a28.34,28.34,0,0,0-3.64-.4,24.42,24.42,0,0,0-2.45-2.75,14.91,14.91,0,0,1,1.07-1C474.21,175,475.74,174.35,476.7,174.83Zm-12.8,6.55c-.91-3-.78-5.27.25-5.93s2.46-.1,4.35,1.3a13.78,13.78,0,0,1,1.15.93,29.51,29.51,0,0,0-2.15,3A27.23,27.23,0,0,0,463.9,181.38Zm-2.2,2.1,1.39-.55a34.78,34.78,0,0,0,1.49,3.37,25.7,25.7,0,0,0-1.15,3.48c-2.23-.5-4.06-1.29-4.78-2.41a1.54,1.54,0,0,1-.26-.76C458.32,185.55,459.55,184.4,461.7,183.48Z"/><path d="M448.29,183.6a1.26,1.26,0,0,0,1.22-.59,1.08,1.08,0,0,0,0-1.26c-.3-.49-.63-1-.94-1.46l-.06-.09-3.37,2.17.25.39,1.28-.82.39.61a.23.23,0,0,1,0,.24l-.71,1.56a.18.18,0,0,0,0,.12l.33.51c.28-.62.54-1.21.81-1.83A1.13,1.13,0,0,0,448.29,183.6Zm-1.2-1.92,1.29-.83.09.14c.2.3.41.61.58.92a.74.74,0,0,1-.26,1,.77.77,0,0,1-1.05-.22C447.53,182.39,447.34,182.07,447.09,181.68Zm3.07,5.15a1.39,1.39,0,0,0-.22-2.23,1.45,1.45,0,0,0-1.65,0,1.53,1.53,0,0,0-.78,1.08,1.66,1.66,0,0,0,.52,1.4,1.44,1.44,0,0,0,.76.42,3.3,3.3,0,0,0,.13-.37,1.24,1.24,0,0,1-1-1.07,1.15,1.15,0,0,1,.46-.94l1.3,2,.17-.11A1,1,0,0,0,450.16,186.83ZM448.69,185a1,1,0,0,1,1.31.26.89.89,0,0,1-.28,1.34Zm3.7,3.26a2.5,2.5,0,0,0-.34-.62,1.47,1.47,0,0,0-.93-.55c-.05.13-.1.24-.16.38l.12,0a1.11,1.11,0,0,1,.76.58.62.62,0,0,1,0,.73,3.71,3.71,0,0,1-.54.42.09.09,0,0,1,0-.08,1.33,1.33,0,0,0-.45-1.19.92.92,0,0,0-1.1-.14,1,1,0,0,0-.52,1.06,1.33,1.33,0,0,0,.42.72c.15.16.31.17.62.34l-.17.11.23.36c.52-.33,1.17-.73,1.76-1.13A.78.78,0,0,0,452.39,188.26Zm-1.52,1.24c-.05,0-.08.05-.12.08a.49.49,0,0,1-.68,0,1,1,0,0,1-.39-.55.61.61,0,0,1,.24-.69.59.59,0,0,1,.73,0,1,1,0,0,1,.39.92C451,189.37,451,189.46,450.87,189.5Zm2.59,1.2a.93.93,0,0,1,.33,1.05v.05l.43.12a.53.53,0,0,1,.05-.15,1.52,1.52,0,0,0-.88-1.66,1.72,1.72,0,0,0-2.06.89,1.4,1.4,0,0,0,.25,1.59,1.28,1.28,0,0,0,.9.46c0-.14,0-.28.07-.43h-.09a.94.94,0,0,1-.74-1.29,1.22,1.22,0,0,1,.71-.7A.91.91,0,0,1,453.46,190.7Zm0,3.85-.05,0a.42.42,0,0,1-.26-.29.33.33,0,0,1,.17-.32l1.48-.95s0,0,.12-.05l.32.49.39-.25-.34-.52.65-.42-.25-.39-.7.45-.22-.34s-.07,0-.09,0a2.33,2.33,0,0,0-.29.19l.27.41L453,193.58a.61.61,0,0,0-.34.56.89.89,0,0,0,.53.71.15.15,0,0,0,.1,0C453.3,194.74,453.37,194.65,453.43,194.55Z"/><path d="M456,198.34l2.62-1.69c.15-.1.23-.09.31.08s.23.21,0,.36c-1,.66-2.07,1.33-3.1,2-.13.08-.17,0-.26-.06a.68.68,0,0,1,0-.95c.52-.85,1-1.74,1.48-2.61l.09-.18a.38.38,0,0,0-.24.11l-2.4,1.54c-.13.08-.2.08-.28-.06s-.18-.28.1-.46l3-1.92c.13-.09.17-.05.27.06a.68.68,0,0,1,0,.94c-.54.89-1,1.81-1.53,2.71A.13.13,0,0,0,456,198.34Z"/><path d="M457.65,201.43a1.25,1.25,0,0,1-1.11-.86.85.85,0,0,1,.27-1,.92.92,0,0,1,1.19-.1,2.18,2.18,0,0,1,.51.54,4.8,4.8,0,0,1,.3.48c.09.19.18.14.29,0a.65.65,0,0,0,.13-.76,1.83,1.83,0,0,0-.73-.85c-.13-.08-.09-.11,0-.19a.29.29,0,0,1,.46,0,3.17,3.17,0,0,1,.63.78,1.11,1.11,0,0,1-.37,1.53c-.51.35-1,.67-1.55,1-.08,0-.12,0-.17,0C457.3,201.69,457.29,201.7,457.65,201.43Zm.7-1A3,3,0,0,0,458,200l-.09-.1a.51.51,0,0,0-.74,0,.53.53,0,0,0-.15.7.9.9,0,0,0,1.26.43c.32-.16.32-.16.13-.45Z"/><path d="M463.8,210.63c-.46.31-.32.33-.73,0a2.27,2.27,0,0,1-.67-1,1.5,1.5,0,0,1,.87-1.87,1.42,1.42,0,0,1,1.71.16,1.32,1.32,0,0,1-.17,2.19c-.28.19-.28.19-.45-.09-.33-.5-.65-1-1-1.5-.09-.15-.15-.13-.26,0a1,1,0,0,0-.21,1.25A2.47,2.47,0,0,0,463.8,210.63Zm.31-1.71h0l.35.54c.14.23.17.23.36,0a.78.78,0,0,0,0-1,.89.89,0,0,0-1.15-.3c-.09.05,0,.09,0,.15l.42.64Z"/><path d="M461.22,206.77l2.36-.52c.21-.05.34,0,.42.18a1.73,1.73,0,0,0,.13.21l-1.07.24-2,.42a.17.17,0,0,1-.22-.08c-.3-.45-.3-.45,0-.89l1.51-2c.09-.11.13-.13.22,0,.18.3.19.3,0,.58l-1.33,1.77A.2.2,0,0,0,461.22,206.77Z"/><path d="M459.79,202.49a7,7,0,0,0-.75.5.32.32,0,0,0-.08.45,4.92,4.92,0,0,0,.28.45c.11.16,0,.19-.11.25s-.15.15-.24,0a4.14,4.14,0,0,1-.39-.68.62.62,0,0,1,.21-.83,14.31,14.31,0,0,1,1.46-1c.16-.1.21-.18.08-.32s0-.17.1-.23.16-.14.23,0,.18.17.32.06.27-.17.41-.27.13-.05.19,0c.22.31.22.3-.1.51-.14.09-.35.14-.38.28s.15.28.23.42.1.16.15.25.08.31-.14.37-.1,0-.13-.08c-.13-.21-.27-.41-.39-.61s-.14-.13-.25-.05S460.05,202.31,459.79,202.49Z"/><path d="M460.59,204l1.15-.74c.12-.08.17-.06.24,0,.18.28.18.28-.1.46-.71.46-1.43.91-2.14,1.38-.13.08-.18.06-.25-.06s-.18-.27.09-.44Z"/><path d="M462.88,203.11c-.26.16-.42.12-.48-.2s.26-.21.37-.33.13-.06.18,0l0,0C463.16,202.93,463.16,202.93,462.88,203.11Z"/></svg>