<svg xmlns="http://www.w3.org/2000/svg" viewBox="0 0 210.67 96.17"><defs><style>.cls-1{fill:#1c1c1c;}</style></defs><g id="Warstwa_2" data-name="Warstwa 2"><g id="Warstwa_1-2" data-name="Warstwa 1"><path class="cls-1" d="M1.69,1.07C38.13,27.65,89,64.83,124.61,91.45l-1.6.74c0-3.58.11-7.15.22-10.72.22-6.35.57-15.17,1-21.41a45.36,45.36,0,0,1,1.39-10.65,1.18,1.18,0,0,1,1.27-.84c4.32.41,7.59,2.88,11.15,4.73L148.37,59c19.21,10.74,42.95,24.07,61.78,35.25L209,95.9,111.31,4,113,3.43l-8,51.51a1,1,0,0,1-1.46.73Q97,52.49,90.63,49.25c-24.14-11.82-65-35-88.94-48.18ZM0,0C34.21,16.92,71.36,35.15,104.43,53.9l-1.45.73,8-51.51a1,1,0,0,1,1.67-.57l97.67,91.89a1,1,0,0,1-1.13,1.62c-23.39-11.92-50.21-26.38-73.29-39-3.41-2-7.15-3.39-9.83-6.72l1.48-.81c1,7.18-.31,14.27-.62,21.43-.52,6.26-1.21,15.19-1.95,21.35a1,1,0,0,1-1.6.74C87.42,66.44,36.22,27.41,0,0Z"/></g></g></svg>