<svg xmlns="http://www.w3.org/2000/svg" viewBox="0 0 191.16 179.9"><defs><style>.cls-1{fill:#fff;}</style></defs><g id="Warstwa_2" data-name="Warstwa 2"><g id="Warstwa_1-2" data-name="Warstwa 1"><path class="cls-1" d="M189.88,178.36c-32.3-43.78-77.38-105-108.81-148.42l1.74-.23C79.64,39.52,75.73,50.39,72.1,60a45.49,45.49,0,0,1-4.51,9.74,1.18,1.18,0,0,1-1.46.43c-4-1.69-6.39-5-9.23-7.85C38.73,43.33,17.85,21.2.28,1.69L1.87.51,67.65,117.37l-1.77,0,23-46.76a1,1,0,0,1,1.63-.24c34.05,34.66,66.61,71.66,99.33,107.94Zm1.28,1.54c-30.78-31.78-73.28-75.43-102.07-108.12l1.63-.24-23,46.76a1,1,0,0,1-1.77,0L.13,1.49A1,1,0,0,1,1.72.31C7.39,5.82,13,11.43,18.56,17,30.64,29.16,48.18,47.07,60,59.38c2.66,2.92,5.81,5.37,7.37,9.35l-1.65.33c1.22-7.14,4.55-13.52,7-20.26C75.07,43,78.4,34.66,80.94,29a1,1,0,0,1,1.75-.23C114.46,72.3,159.34,135.43,191.16,179.9Z"/></g></g></svg>