<svg xmlns="http://www.w3.org/2000/svg" viewBox="0 0 545.63 16.07"><defs><style>.cls-1{fill:#dedee0;}.cls-2{fill:#7d7dff;}</style></defs><g id="Warstwa_2" data-name="Warstwa 2"><g id="Warstwa_1-2" data-name="Warstwa 1"><line class="cls-1" y1="8.04" x2="545.63" y2="8.04"/><path class="cls-2" d="M119.47,15.3c-21.34-1.68-43.7.94-65.39-1.61-7-.82-18.57-.59-26.82,1.34-3.94.92-22.39-1-26.1-2.87-3.56-1.78,1.84-2.9,5.66-4L7,8.21l-.26,0c10-4.55,22.26-7.52,43-6.59,11.47.51,23-1.35,35.21-.59,8.89.55,18.33.34,26.83,1.53a14.12,14.12,0,0,0,2.14.3c10.43-1.79,21.8-.63,32.69-.89,4.07-.11,8.19-.46,12.15-.34a95.08,95.08,0,0,0,16.8-.9c7.68-1,16.22-1.21,22.37,1.69,2.09,1,9.87,1.28,15.25.53,7.51-1.06,14.72-1.52,21.86.19a8.47,8.47,0,0,0,2.29.18c15.42-1.94,31.77,1.28,46-.21,16.6-1.75,30.46-.38,45.85.59,9,.57,18.86-.79,28.67-.74,3.59,0,7.43-.51,11.37-.21a25.07,25.07,0,0,0,4.22.16,123.28,123.28,0,0,1,29.4-1.14l.21,0-.24-.06c8-1.87,15.89-1.09,23.81,0l-.13,0c.77.4-.31,1.19,2.87,1.08,9.8-.34,19.26.59,28.94.68A24.44,24.44,0,0,0,463,3.17a64.3,64.3,0,0,1,26-.28,6.45,6.45,0,0,0,1.12.12c7.52-2.5,18.51-.35,27.21-1.76,9-1.46,29.27,2.5,28.29,5.36-.18.55-2.58,1-4,1.55l.12,0c-11.27,3-24,4.79-39.45,5.88-13.37.95-25.41-1.08-36.82-.21-10.42.8-21.11,1.11-30.92,1-12.73-.08-25.07,1.75-38.45.13-7.25-.88-16.89-.14-25.45-.09-17.12.08-34.07,1.36-51.45-.12-6.9-.59-15.6-.78-22.68.7h.12c-10.14-1.22-19.42.94-29.59.57-17-.62-34.56.16-51.25-1.6a33.61,33.61,0,0,0-7.6.22,60.35,60.35,0,0,1-17.7,0,88.65,88.65,0,0,0-21.17-.19c-5.42.65-10.78,1.25-16.12-.09a12.28,12.28,0,0,0-3.4-.3c-9.27,2.42-20.57.27-30.46,1.16Z"/></g></g></svg>